<?xml version="1.0" standalone="no"?><!DOCTYPE svg PUBLIC "-//W3C//DTD SVG 1.1//EN" "http://www.w3.org/Graphics/SVG/1.1/DTD/svg11.dtd"><svg t="1724850490501" class="icon" viewBox="0 0 1024 1024" version="1.1" xmlns="http://www.w3.org/2000/svg" p-id="2764" xmlns:xlink="http://www.w3.org/1999/xlink" width="200" height="200"><path d="M511.8 63.9C264.5 63.9 64 264.4 64 511.8s200.5 447.8 447.8 447.8 447.8-200.5 447.8-447.8S759.1 63.9 511.8 63.9z m301.4 446.4c0-112.3-105.5-199.4-207.2-183 76.5 31.9 113.3 117.1 113.3 199.4s-68.7 244-255.6 244c-134.6 0-274-110.4-253.6-258.5 0 0 0 185.9 206.2 183.9C334.9 653.6 304 575.2 304 490c0-85.2 87.1-237.2 258.5-237.2 171.3 0 270 152.9 250.7 257.5z m-301.4-78.4c-40.9 0-74.1 33.2-74.1 74.1 0 40.9 33.2 74.1 74.1 74.1 40.9 0 74.1-33.2 74.1-74.1 0-41-33.2-74.1-74.1-74.1z" fill="#2F848D" p-id="2765"></path></svg>